PathFileType	4	(X/Y/Z)	49_1_rein_22_p0_0-278_filt_butterworth.trc
DataRate	CameraRate	NumFrames	NumMarkers	Units	OrigDataRate	OrigDataStartFrame	OrigNumFrames
45.0	45.0	6	27	m	45.0	139	278
Frame#	Time	RHip			RKnee			RAnkle			RBigToe			RSmallToe			RHeel			LHip			LKnee			LAnkle			LBigToe			LSmallToe			LHeel			Neck			Head			Nose			RShoulder			RElbow			RWrist			RThumb			RIndex			RPinky			LShoulder			LElbow			LWrist			LThumb			LIndex			LPinky			
		X1	Y1	Z1	X2	Y2	Z2	X3	Y3	Z3	X4	Y4	Z4	X5	Y5	Z5	X6	Y6	Z6	X7	Y7	Z7	X8	Y8	Z8	X9	Y9	Z9	X10	Y10	Z10	X11	Y11	Z11	X12	Y12	Z12	X13	Y13	Z13	X14	Y14	Z14	X15	Y15	Z15	X16	Y16	Z16	X17	Y17	Z17	X18	Y18	Z18	X19	Y19	Z19	X20	Y20	Z20	X21	Y21	Z21	X22	Y22	Z22	X23	Y23	Z23	X24	Y24	Z24	X25	Y25	Z25	X26	Y26	Z26	X27	Y27	Z27	
139	3.088888888888889	0.3491888025505518	0.6251219691872916	0.7977440030674942	0.3469392261360247	0.8067227928979751	1.2113002509308541	0.3282708520558497	0.9962148814995462	1.587442922639273	0.30509705970894185	0.8653471018704068	1.6692352943364883	0.37031388402905197	0.8788157848052255	1.6691882789336348	0.31116676300172763	1.133499887536972	1.6285169190938322	0.1287534744233895	0.6792805471762124	0.7890663895459418	0.13134651006035622	0.8669965262781266	1.2053395149910409	0.143155970364585	1.030960466595549	1.5962654440773556	0.15508182013618488	0.8378840557148627	1.6493481614824448	0.10392854730562162	0.8948840837535743	1.6489512894995333	0.1670812760292557	1.0772522775566218	1.6368473269772355	0.2669233706002468	0.39984289664508155	0.16981510579790057	0.31042573369482757	0.3304672837150125	-0.06299597453395622	0.2589847266151771	0.2608939429428065	0.038548824580641766	0.40427862069784165	0.42028635694968886	0.2859118634020997	0.44915603196315135	0.5010697548813179	0.568140225101812	0.3656920476288628	0.5129280693196692	0.8180342555588832	0.2780195466942916	0.5517494943110592	0.9105333837032866	0.2912571379078018	0.5655566840723134	0.9348682577102947	0.3392469228741032	0.548631395851889	0.9412220981898213	0.08992727869939446	0.43701420299549004	0.26775429309991083	0.03924858415628303	0.5708419598676501	0.5192688715493078	0.08887947330522442	0.5746060713828426	0.7935997884621466	0.13722362933932358	0.5265750954242135	0.8852854857653694	0.12912309108828957	0.5336625804180922	0.9088776931263125	0.09005543722278775	0.619776422344364	0.9011148887945228
140	3.111111111111111	0.3491889252137276	0.6250890493931707	0.7977156309311103	0.34450840584384573	0.8005421334661024	1.2104316855649015	0.32826281338499885	0.9961490011797716	1.5874416261762438	0.3047983036956111	0.8644393037527103	1.6676581656051193	0.37049708629484723	0.8790371967159012	1.6691275993990122	0.311018624044608	1.1329102922324317	1.6283850308196335	0.1287620318276673	0.6792929361360315	0.7890682181716044	0.1313823412652953	0.8669554619620536	1.2053344620409465	0.14315641035307083	1.0309266571697058	1.596264808724595	0.15505604589139704	0.8376156227834625	1.6491782132355577	0.10393292538122717	0.8948636069176482	1.6489299725916913	0.16681729485864588	1.0771966813287042	1.6369000171588335	0.2669110913434663	0.39979513005608713	0.16984164040176533	0.31035541771144215	0.3302477847666634	-0.06295162325269527	0.2589798774433548	0.2607289190646578	0.03902596570499786	0.404277805092849	0.4202741484218163	0.28593641427542404	0.44910761273942124	0.5009708353471424	0.5680549671657086	0.3656883041654265	0.5128636857469087	0.8180351137254358	0.2778927229756635	0.5517277322138858	0.9107521682602775	0.2913733497324337	0.5660431962520032	0.9347910455166986	0.33928026037620684	0.5485937111134509	0.9412457920420771	0.08993058707236361	0.4370215928947599	0.26775146045360126	0.039284430864647446	0.5708253658529702	0.518973542003923	0.08904460347103366	0.5746355986923677	0.7936110444341588	0.1372260615181238	0.526620444780334	0.8853353758034039	0.12919575791274404	0.5336798309182704	0.9089322408730983	0.09185288202891476	0.6137513681868647	0.9011807901942706
141	3.1333333333333333	0.3491825078262825	0.6250809017469319	0.7977084031480468	0.3434473771071374	0.7984660127625608	1.2108355234573747	0.328266815153598	0.9961232596787258	1.5874706907604785	0.30490035413017164	0.8645623161123154	1.6676366645929734	0.3706829420823671	0.879155464418619	1.6690404339546383	0.3109689770619568	1.1327135719569066	1.6283404849591596	0.1287472421271102	0.6793439833011207	0.7890831486169172	0.13139491664576886	0.8669683042553856	1.2053508581796823	0.14315431333510287	1.0309070013665798	1.596283608462227	0.15507722275188485	0.8375935205147205	1.6492792515578674	0.103944695717097	0.8948907006000792	1.6489249931520784	0.16670692966224293	1.077232882295574	1.6369716916581682	0.2669106449925782	0.39975911226382077	0.16987241317212903	0.3103363762996687	0.32998660516204104	-0.06293682149130624	0.25896955094878665	0.26075169412265387	0.03981470970386908	0.4042809979496286	0.42020501555644346	0.28596812194074245	0.4490733767252377	0.5009491427333728	0.5680017623778693	0.36568802652104204	0.512904028750619	0.818056804811418	0.2778892356294992	0.5517961606378059	0.9106402149635382	0.2913739208237994	0.5661872418863221	0.9349628936070469	0.3392929241449618	0.5485574813330628	0.9412823178199154	0.08992854567249099	0.43701623048679805	0.2677372776018324	0.039323959412991216	0.5709354604283947	0.5201743526406313	0.08889485524207691	0.5745988909642368	0.7936491251658753	0.13721947299348936	0.5266369557967978	0.8853776137793987	0.1293142133658791	0.5337643891542312	0.9089185946754288	0.09319128268235778	0.6107080511132611	0.9012362595880768
142	3.1555555555555554	0.3491659259585841	0.6251355665561267	0.7977641805164442	0.34353433060976374	0.8000027471646234	1.2117842643167491	0.32828067391159965	0.9961887402793956	1.5875043781442026	0.3052861410557087	0.865734802497562	1.669215369153405	0.3706652370093706	0.8792033603785668	1.669076452166283	0.31099672211396934	1.1329156425049072	1.6283578747842764	0.12872914027693702	0.6794236933921487	0.7891201684060961	0.13137453090165047	0.866983385861219	1.2053900101397084	0.14315171920389919	1.0309052865697637	1.59632033363768	0.15527466950353533	0.838632987069994	1.6505879392891791	0.10390291317292118	0.8949157224858996	1.6489370416618854	0.1667360123858905	1.0773663079619906	1.637029778195335	0.26691968883688566	0.3997614277695207	0.16988719505888342	0.3103453221393985	0.3298025292259487	-0.06299941638549204	0.2589639191151801	0.26080174565049374	0.040129048785651905	0.40428538340994885	0.420142456843023	0.28598753189714166	0.44905770054652266	0.5010240783939782	0.5680080315736473	0.3656431479877255	0.5129629283022333	0.8181400960773942	0.27788378843827505	0.5517839205706581	0.9106448867144508	0.29126737673057723	0.5660919619363606	0.935993740068284	0.33927580549209724	0.5485466641882591	0.9413450909498848	0.08993627391059475	0.4370373648522107	0.26771848015126687	0.03898009861427693	0.5709547817377204	0.5217939420512777	0.08774938524269962	0.5743539198254224	0.7936884806338504	0.137215995126922	0.526595080577106	0.8853800359420454	0.12897974454322655	0.5339357602610003	0.9089310529511911	0.09293120576687255	0.6138141404161217	0.9012674094562056
143	3.1777777777777776	0.3491531355030053	0.6252199120514905	0.7977796579471654	0.3437565346332043	0.802177055232885	1.212161418384334	0.32828821795773633	0.9962649395452801	1.5875227696901437	0.3056899952500612	0.8673635545149204	1.671524364478615	0.3704521822048207	0.8792464546462471	1.6693164883874134	0.3109804451466596	1.1331099775395983	1.6284497733836696	0.12872638657197805	0.6795344008590254	0.7891318012591757	0.1313445803603747	0.8669481260990745	1.2054173663599133	0.14314887922652464	1.0309070449352766	1.596350614680523	0.15559770016523508	0.8403480851153287	1.652708017575269	0.10383997865473428	0.8948831672491558	1.6489551983211999	0.16684792010504781	1.0775018086752697	1.6370049672322358	0.2669280095704028	0.3997490771652799	0.16988897240108103	0.31030053525687407	0.3296653780750613	-0.06310780780084004	0.25889959960282705	0.26079406913064873	0.04016206802277818	0.40429500968250826	0.4201344682421515	0.2860001551010919	0.4490009755766081	0.5010853953528391	0.5680280495219835	0.3655090111722853	0.5128952634037545	0.8182874437187206	0.27773793822146314	0.5514854992565682	0.9108168353056115	0.2912327629668401	0.5660093849669601	0.9377687478286754	0.3392445235817347	0.5485645547079809	0.9414081760583687	0.08995823017246506	0.4370423757801508	0.26772951141220713	0.03767892147317911	0.5708622898503345	0.5228045130866854	0.08595020702346481	0.5739819850490951	0.7937173454131515	0.1372176349656165	0.5266034138875675	0.8853838362870061	0.12764966717890078	0.5340878973220271	0.9089731263047891	0.09034701215711506	0.6199866142910416	0.9012741736606855
144	3.2	0.3491499667278698	0.6252753501188733	0.7977145873476628	0.3437966540354681	0.802963455543721	1.2119992106696977	0.3282827880708396	0.996268614835784	1.5875243427117642	0.30587357041139357	0.8683923123753602	1.6730158559120774	0.37021227570512577	0.8792535119810363	1.6696090812383975	0.310975952208978	1.1329293149265105	1.628577511783755	0.12872602653444926	0.679616842368364	0.789105741922767	0.1313288259496691	0.8668696188405628	1.2054176454009	0.14314742997778046	1.0309085033735665	1.596364423725154	0.15582886208733576	0.841416393275273	1.6541068311769456	0.10385567206725213	0.8947109288339518	1.648948608741764	0.1670171244374939	1.0775899943566207	1.6369840511514635	0.2669316999298064	0.3996966058276207	0.16989368618321057	0.3102190258709538	0.32950801083172626	-0.06281825368504947	0.25878958316828204	0.2607805544995219	0.0402349718898306	0.4043014802741059	0.42016220512563895	0.28601778943327677	0.4489369435829623	0.5008693486723109	0.5680383371607098	0.36535064550773244	0.5128061519271506	0.8183737403257796	0.2775009253784257	0.5510661340763728	0.911037895286051	0.2913663144470072	0.5659534650479905	0.939195408051752	0.33921626136693406	0.5486020569509557	0.9414833043634458	0.08999875147993126	0.43699428814401825	0.2677739663416864	0.03582419712699527	0.5707444724654456	0.5230284479436014	0.08476227582507387	0.5737472553948602	0.7937488477659198	0.1372313587306573	0.526703474952089	0.8854181468782801	0.12586790419649707	0.5340888560677987	0.9089278389066935	0.08660696004578386	0.6239641349259862	0.9012787391585202
